<?xml version="1.0" standalone="no"?>
<!DOCTYPE svg PUBLIC "-//W3C//DTD SVG 20010904//EN"
 "http://www.w3.org/TR/2001/REC-SVG-20010904/DTD/svg10.dtd">
<svg version="1.0" xmlns="http://www.w3.org/2000/svg"
 width="1280.000000pt" height="984.000000pt" viewBox="0 0 1280.000000 984.000000"
 preserveAspectRatio="xMidYMid meet">
<metadata>
Created by potrace 1.15, written by Peter Selinger 2001-2017
</metadata>
<g transform="translate(0.000000,984.000000) scale(0.100000,-0.100000)"
fill="#000000" stroke="none">
<path d="M8370 9830 c-25 -4 -106 -36 -180 -70 -207 -95 -646 -280 -830 -350
-91 -34 -167 -64 -169 -66 -2 -1 13 -121 33 -266 20 -145 36 -269 36 -277 0
-17 4 -17 478 65 628 108 1074 195 1077 209 18 87 148 389 227 529 53 95 103
215 93 225 -10 9 -715 11 -765 1z"/>
<path d="M9536 9830 l-139 -5 -64 -165 c-154 -400 -235 -635 -254 -745 -6 -36
-12 -65 -14 -65 -12 0 -291 -32 -344 -40 -131 -19 -353 -63 -756 -150 -505
-109 -943 -196 -950 -188 -1 2 -7 173 -13 382 -6 208 -14 381 -17 384 -3 3
-27 0 -52 -6 -57 -16 -293 -113 -293 -122 0 -27 -151 -825 -157 -831 -15 -15
-2055 -744 -2221 -794 -19 -5 -46 15 -180 138 -86 80 -206 195 -265 255 l-108
109 -237 -89 c-130 -49 -245 -92 -254 -96 -15 -6 -2 -31 90 -172 59 -91 147
-224 196 -295 48 -71 90 -134 92 -140 2 -5 -49 -30 -114 -54 -192 -72 -1072
-476 -1483 -681 -96 -49 -234 -122 -306 -164 l-131 -75 -476 261 -476 260
-301 -112 c-165 -62 -296 -116 -292 -120 4 -4 35 -17 68 -30 144 -56 482 -207
1048 -469 335 -155 612 -281 616 -281 5 0 60 37 122 83 63 45 143 103 179 128
310 219 1644 881 2532 1258 555 234 892 359 1798 662 977 328 1070 354 1523
419 246 36 1337 160 1402 160 9 0 17 6 20 13 2 6 65 215 140 462 75 248 170
551 211 674 41 124 71 228 67 232 -14 12 -66 14 -207 9z"/>
<path d="M6215 8951 c-66 -21 -214 -75 -330 -119 -115 -44 -426 -162 -690
-261 -264 -99 -599 -229 -745 -289 -146 -60 -307 -124 -359 -143 -51 -19 -96
-40 -98 -47 -12 -29 28 -83 161 -219 l141 -144 41 15 c23 8 163 69 310 136
406 184 402 183 1247 451 l358 113 25 82 c32 107 85 465 67 463 -4 0 -62 -18
-128 -38z"/>
<path d="M8996 8224 c-300 -46 -2175 -568 -3011 -837 -366 -118 -653 -227
-1695 -642 -952 -379 -1295 -535 -1545 -702 -279 -186 -538 -389 -601 -471
-37 -48 -44 -89 -17 -99 71 -28 407 114 1483 625 628 298 809 378 994 441
l145 50 154 -227 c85 -125 250 -364 367 -532 117 -168 359 -525 538 -795 555
-837 718 -1062 922 -1265 83 -84 231 -207 320 -267 56 -38 251 -146 255 -141
3 4 -260 431 -415 673 -254 397 -618 887 -729 981 -15 13 -66 94 -113 181 -98
183 -141 251 -488 778 -299 455 -342 524 -387 625 -42 96 -42 118 1 159 l35
34 94 -82 c165 -141 255 -253 485 -601 74 -113 277 -418 451 -678 322 -481
422 -633 928 -1402 362 -549 385 -586 477 -759 72 -137 74 -143 48 -136 -45
13 -74 6 -130 -28 -76 -46 -160 -133 -271 -282 -124 -166 -136 -183 -532 -797
-182 -282 -332 -514 -333 -515 -4 -4 -471 -102 -474 -99 -1 2 118 147 264 322
485 580 726 889 915 1172 163 244 206 362 131 362 -58 0 -128 -83 -372 -440
-446 -654 -722 -991 -1055 -1288 -473 -422 -733 -582 -1065 -653 -137 -30
-337 -37 -395 -14 -106 40 -188 204 -410 829 -28 80 -70 145 -115 178 -15 11
-62 24 -119 32 -73 11 -103 21 -135 43 -23 16 -41 35 -41 42 0 7 32 26 70 43
165 71 355 146 386 153 54 12 135 56 118 64 -8 5 -174 32 -370 62 l-355 53
-55 80 c-30 44 -84 110 -121 146 -104 104 -291 220 -416 260 -54 17 -87 55
-109 128 -15 47 -18 94 -17 267 0 219 5 279 55 635 16 118 32 267 35 330 6
115 6 115 -25 170 -51 90 -210 408 -331 663 -62 130 -115 236 -116 234 -2 -2
8 -78 22 -170 42 -282 84 -398 235 -648 l92 -152 -27 -171 c-126 -783 -145
-924 -155 -1156 -4 -91 -7 -166 -5 -168 1 -2 67 -14 147 -27 215 -36 283 -51
377 -85 l85 -31 67 -112 c37 -62 104 -188 149 -282 45 -93 96 -192 114 -220
47 -72 118 -140 195 -185 144 -84 209 -197 309 -535 61 -209 105 -342 138
-415 66 -149 51 -218 -109 -500 -131 -230 -230 -430 -214 -430 60 0 126 62
238 224 60 86 212 334 279 455 l24 44 170 -7 c94 -4 233 -7 310 -7 l140 0 171
70 c265 108 453 163 1019 297 748 177 1239 360 2320 866 527 247 1050 510
1220 613 l160 97 258 13 c142 7 260 15 262 17 2 2 -91 67 -208 145 -256 170
-537 378 -671 498 -54 48 -146 144 -205 214 -58 69 -139 161 -179 206 -100
110 -233 313 -557 850 -153 253 -374 618 -493 810 -344 560 -826 1362 -974
1625 -71 126 -168 315 -168 328 0 11 127 42 166 42 51 -1 113 -48 192 -145
125 -152 167 -220 537 -865 153 -267 433 -746 623 -1065 942 -1583 1006 -1668
1612 -2131 423 -324 554 -404 695 -426 72 -11 77 -11 97 10 18 18 20 25 10 46
-15 34 -121 116 -395 307 -506 353 -538 385 -792 769 -114 173 -665 1060 -888
1430 -422 700 -1290 2221 -1275 2235 2 2 37 8 78 14 71 9 77 9 116 -14 73 -43
201 -204 355 -445 48 -74 212 -349 366 -610 681 -1154 985 -1635 1077 -1705
25 -19 45 -54 86 -152 110 -268 290 -573 463 -788 231 -287 679 -628 1022
-777 135 -59 192 -69 350 -66 l140 3 -240 154 c-329 212 -586 383 -675 451
-129 99 -272 259 -472 530 -201 273 -321 467 -811 1305 -115 198 -321 547
-457 775 -560 942 -715 1205 -804 1372 l-57 107 28 7 c15 3 44 10 63 15 70 18
86 12 155 -53 135 -126 261 -315 642 -967 376 -641 390 -665 853 -1426 830
-1362 763 -1260 944 -1440 190 -190 360 -300 811 -527 l280 -141 230 62 c309
84 457 133 602 199 142 64 125 38 189 292 32 128 37 160 38 275 1 147 -16 219
-81 350 -96 192 -222 308 -398 367 -62 20 -88 23 -225 22 -139 -1 -163 -4
-235 -27 -98 -32 -208 -102 -303 -191 l-71 -67 -14 23 c-8 13 -31 52 -53 88
-21 36 -232 385 -469 775 -237 391 -505 836 -595 990 -89 154 -266 453 -393
665 -444 743 -557 944 -622 1105 -37 92 -44 101 -75 112 -46 16 -153 14 -264
-3z"/>
<path d="M2720 7596 c-254 -90 -452 -165 -650 -244 -180 -72 -990 -417 -1087
-462 -78 -36 -133 -77 -133 -99 0 -10 155 -100 350 -204 133 -71 219 -103 305
-115 l68 -9 82 51 c45 28 424 224 843 436 l762 384 0 32 c0 39 -31 85 -145
213 -82 92 -93 101 -125 101 -19 -1 -141 -38 -270 -84z"/>
<path d="M3620 5589 c-31 -4 -112 -28 -180 -53 -171 -61 -347 -110 -695 -191
-100 -24 -104 -25 -77 -36 31 -12 224 -29 328 -29 114 0 169 13 313 72 177 72
225 88 316 104 96 17 322 34 460 34 55 1 118 4 140 8 40 8 40 8 -70 44 -60 20
-145 41 -188 47 -89 12 -265 13 -347 0z"/>
<path d="M3508 5310 c-118 -20 -282 -95 -307 -142 -9 -15 -13 -29 -10 -32 3
-3 46 5 95 19 195 54 321 69 574 70 225 0 240 -1 362 -29 70 -17 130 -27 134
-24 10 11 -14 44 -53 71 -42 28 -77 34 -413 62 -188 16 -307 17 -382 5z"/>
<path d="M3730 5064 c-262 -47 -446 -64 -703 -66 -183 -1 -180 5 -67 -113 54
-57 72 -84 95 -145 45 -121 80 -182 134 -235 28 -27 51 -57 51 -66 0 -9 -17
-27 -37 -39 l-38 -22 28 -24 c20 -17 40 -24 70 -24 23 0 139 -9 257 -20 210
-19 455 -24 575 -11 59 6 57 6 -113 34 -152 25 -290 54 -300 63 -2 1 -1 12 3
23 4 13 37 36 83 61 72 37 286 189 279 197 -5 4 -235 -66 -440 -134 -76 -25
-141 -43 -144 -40 -12 13 29 205 55 257 60 120 140 144 538 160 142 5 292 13
333 16 73 6 73 6 54 26 -39 38 -402 128 -513 127 -36 0 -126 -12 -200 -25z"/>
<path d="M4750 3431 c-114 -35 -197 -144 -202 -267 l-3 -59 100 -3 c55 -1 106
2 114 7 26 17 3 39 -54 51 -52 11 -95 37 -95 59 0 28 39 52 105 65 100 20 178
27 193 17 17 -10 42 -119 44 -192 2 -71 -14 -92 -105 -138 -84 -42 -202 -58
-522 -71 -493 -20 -601 -27 -626 -40 -13 -7 -54 -37 -92 -67 -56 -45 -66 -57
-57 -72 5 -10 26 -21 47 -25 103 -16 770 1 968 25 224 28 429 141 463 256 17
57 31 174 32 256 l0 68 -57 58 c-40 41 -71 63 -98 70 -45 12 -118 13 -155 2z"/>
<path d="M3363 3375 c-35 -15 -60 -50 -43 -60 6 -4 51 -13 99 -20 112 -17 136
-32 156 -98 8 -28 15 -56 15 -63 0 -8 -34 -14 -102 -18 -376 -24 -497 -40
-558 -71 -55 -28 -77 -50 -59 -61 23 -14 217 -34 341 -34 135 0 225 14 320 51
70 27 85 43 104 110 28 106 17 186 -33 231 -50 46 -172 63 -240 33z"/>
</g>
</svg>
