<?xml version="1.0" encoding="utf-8"?>
<!-- Svg Vector Icons : http://www.onlinewebfonts.com/icon -->
<!DOCTYPE svg PUBLIC "-//W3C//DTD SVG 1.1//EN" "http://www.w3.org/Graphics/SVG/1.1/DTD/svg11.dtd">
<svg version="1.1" xmlns="http://www.w3.org/2000/svg" xmlns:xlink="http://www.w3.org/1999/xlink" x="0px" y="0px" viewBox="0 0 1000 1000" enable-background="new 0 0 1000 1000" xml:space="preserve">
<metadata> Svg Vector Icons : http://www.onlinewebfonts.com/icon </metadata>
<g><g transform="translate(0.000000,511.000000) scale(0.100000,-0.100000)"><path d="M4652.7,4997c-584.8-63.4-1122.6-335.3-1431.4-719.8c-196.3-245.4-361.9-619.6-419.2-952.9c-30.7-175.8-38.9-730-12.3-1014.2l12.3-143.1l-116.6-112.5c-135-130.9-179.9-249.5-179.9-472.4c0-339.4,194.3-695.2,623.7-1143c173.8-182,190.2-204.5,241.3-361.9c122.7-384.4,366-762.7,633.9-989.7c462.1-388.5,1100.1-476.4,1640-222.9c456,212.7,817.9,658.4,993.8,1228.9c42.9,139,61.3,167.7,224.9,335.4c529.6,550,723.9,1006.1,597.1,1402.7c-32.7,102.2-177.9,284.2-243.3,306.7c-18.4,6.1-16.4,57.2,6.1,192.2c16.4,106.3,30.7,333.3,30.7,541.9c2,300.6-4.1,382.4-40.9,515.3c-45,161.5-120.7,331.3-196.3,435.5c-24.5,34.8-61.3,120.6-79.7,190.2c-57.2,206.5-130.9,329.2-298.5,496.9c-239.2,235.1-552.1,378.3-1004,456C5395,5007.3,4885.9,5023.6,4652.7,4997z M6331.6,3833.6c239.2-81.8,400.8-218.8,588.9-501c128.8-192.2,143.1-222.9,155.4-349.7c22.5-200.4-2-466.2-71.6-805.6c-32.7-163.6-61.3-319-61.3-347.6c2-47,4.1-47,38.9,20.5c22.5,38.8,57.2,87.9,81.8,110.4c38.8,34.8,45,36.8,94.1,4.1c26.6-18.4,71.6-71.6,96.1-120.6c65.4-122.7,65.4-384.4-2.1-552.1c-73.6-188.1-272-466.2-511.2-715.7c-216.7-224.9-220.8-231.1-276-409c-182-593-558.2-1024.5-1038.8-1194.2c-130.9-47-184-55.2-415.1-55.2c-224.9-2-288.3,4.1-409,45c-492.8,163.6-895.6,623.7-1073.5,1231c-42.9,145.2-55.2,163.6-265.8,382.4c-241.3,249.5-437.6,525.5-513.3,715.7c-34.8,90-47,161.5-49.1,292.4c0,194.3,38.8,304.7,137,374.2c67.5,49.1,98.1,30.7,161.5-94.1c22.5-42.9,45-75.7,51.1-71.6c4.1,6.1-10.2,104.3-30.7,222.9c-20.4,116.6-42.9,300.6-45,406.9l-8.2,192.2l90,16.4c249.5,42.9,449.9,239.2,535.8,523.5c14.3,47,30.7,83.8,36.8,81.8c6.1-4.1,90-45,186.1-92c353.8-171.8,746.4-255.6,1196.2-257.6c239.3,0,308.8,6.1,419.2,42.9c269.9,90,435.5,278.1,541.9,611.4c32.7,98.1,75.7,214.7,96.1,257.6C6112.8,3888.8,6149.6,3894.9,6331.6,3833.6z"/><path d="M3820.5,1995.2c-188.1-63.4-312.9-177.9-312.9-284.2c0-38.9,4.1-38.9,63.4,14.3c75.7,69.5,229,122.7,396.7,139.1c96.1,8.2,149.3,0,245.4-34.8c237.2-87.9,265.8-92,327.2-53.2c108.4,71.6,16.4,159.5-227,218.8C4112.9,2042.3,3957.5,2044.3,3820.5,1995.2z"/><path d="M5679.3,1995.2c-237.2-59.3-325.1-149.3-218.8-218.8c61.3-38.8,90-34.7,327.2,53.2c96.1,34.8,149.3,42.9,245.4,34.8c167.7-16.4,321-69.5,396.7-139.1l63.4-57.2v51.1c0,71.6-126.8,200.4-251.5,253.6C6096.4,2036.1,5875.6,2046.4,5679.3,1995.2z"/><path d="M3916.6,1557.7c-102.2-32.7-265.8-196.3-265.8-265.8c0-73.6,51.1-71.6,90,2c38.9,73.6,110.4,139,184,167.7c51.1,18.4,55.2,18.4,42.9-14.3c-42.9-98.1-34.8-147.2,26.6-210.6c81.8-81.8,188.1-83.9,263.8-8.2c47,47,51.1,63.4,40.9,155.4l-12.3,102.2l85.9-51.1c47-26.6,104.3-83.9,126.8-124.8c40.9-75.7,96.1-92,108.4-30.7c14.3,81.8-155.4,243.3-300.6,284.2C4213.1,1590.4,4008.6,1586.3,3916.6,1557.7z"/><path d="M5667,1553.6c-45-16.4-104.3-45-132.9-67.5c-69.5-51.1-147.2-167.7-141.1-206.5c12.3-61.3,67.5-45,108.4,32.7c24.5,45,75.7,96.1,124.7,122.7l83.9,47l-10.2-100.2c-8.2-87.9-2.1-108.4,42.9-153.4c110.4-108.4,306.7-36.8,308.8,112.5c0,38.9-8.2,85.9-16.4,106.3c-14.3,32.7-10.2,32.7,40.9,14.3c73.6-28.6,145.2-94.1,184-167.7c36.8-71.6,90-75.7,90-6.1c0,77.7-145.2,224.9-259.7,263.8C5973.7,1592.4,5775.4,1592.4,5667,1553.6z"/><path d="M4718.2,539.3c12.3-87.9,106.3-130.9,282.2-130.9c175.8,0,269.9,42.9,282.2,130.9c8.2,53.2-28.6,57.3-47,6.1c-16.4-57.3-100.2-85.9-247.4-85.9c-120.6,0-139,6.1-196.3,61.3C4720.2,594.5,4710,596.6,4718.2,539.3z"/><path d="M4530.1-205c-28.6-34.8,0-83.8,87.9-153.4c231.1-182,713.7-135,848.6,83.8c24.5,36.8,22.5,49.1-4.1,75.7c-28.6,30.7-38.8,26.6-98.1-30.7c-114.5-106.3-194.3-137-364-137c-167.7,0-274,40.9-366,139C4577.1-166.1,4564.8-164.1,4530.1-205z"/><path d="M3027.1-673.3c-458-171.8-954.9-388.5-1171.7-511.2c-582.8-327.2-995.8-732.1-1241.2-1218.7c-218.8-433.5-355.8-940.6-390.6-1427.3c-16.4-245.4-4.1-274,147.2-341.5c161.5-71.6,580.7-204.5,828.2-263.8c2003.9-472.4,5653.9-472.4,7604.7,0c255.6,63.4,670.7,194.2,828.2,263.8c157.5,71.6,165.6,96.1,137,413.1c-45,462.1-157.5,879.3-351.7,1288.2c-137,288.3-282.2,492.8-513.3,721.8c-415.1,415.1-912,691.1-1897.6,1061.3c-186.1,69.5-343.5,122.7-353.8,120.7c-12.3-4.1-59.3-163.6-106.3-353.8c-175.8-697.3-396.7-1372.1-635.9-1934.4c-220.8-521.4-752.5-1502.9-854.7-1580.7c-55.2-40.9-55.2-40.9-110.4,0c-94.1,71.6-568.5,932.4-803.6,1460c-231.1,517.3-480.5,1255.5-654.3,1932.4c-47,179.9-94.1,361.9-104.3,404.9c-10.2,40.9-30.7,75.7-45,75.7C3323.6-564.9,3184.6-613.9,3027.1-673.3z"/><path d="M4121.1-1726.3c0-282.2,8.2-515.3,16.4-521.4c10.2-6.1,163.6,75.7,343.5,179.9l325.1,188.1l55.2-38.8c32.7-24.5,87.9-40.9,139-40.9c51.1,0,106.3,16.4,139.1,40.9l55.2,38.8l325.1-188.1c180-104.3,333.3-186.1,343.5-179.9c26.6,16.3,20.4,1030.6-6.2,1030.6c-14.3,0-169.7-83.9-347.6-186.1l-323.1-186.1l-55.2,42.9c-32.7,26.6-83.8,42.9-130.9,42.9c-47,0-98.1-16.3-130.9-42.9l-55.2-42.9l-323.1,186.1c-177.9,102.2-333.3,186.1-347.6,186.1C4127.2-1217.2,4121.1-1360.3,4121.1-1726.3z"/></g></g>
</svg>